<?xml version="1.0" encoding="utf-8"?>
<!-- Generator: Adobe Illustrator 26.0.3, SVG Export Plug-In . SVG Version: 6.00 Build 0)  -->
<svg version="1.0" id="Layer_1" xmlns="http://www.w3.org/2000/svg" xmlns:xlink="http://www.w3.org/1999/xlink" x="0px" y="0px"
	 viewBox="0 0 323 240.1" style="enable-background:new 0 0 323 240.1;" xml:space="preserve">
<style type="text/css">
	.st0{fill:#D6002A;}
</style>
<path class="st0" d="M184.4,169.9h-0.5c-0.5,0-0.8-0.1-0.9-0.3c-0.1-0.2-0.2-0.5-0.2-0.8v-12.3h-2.7v12.8c-0.1,0.9,0.2,1.7,0.8,2.3
	c0.6,0.5,1.4,0.8,2.2,0.7c0.2,0,0.4,0,0.6,0l0.6-0.1V169.9z M174.2,167.7c0,0.7-0.3,1.4-0.8,1.9c-0.6,0.5-1.3,0.7-2.1,0.7
	c-0.4,0-0.8-0.1-1.1-0.4c-0.6-0.5-0.7-1.3-0.2-1.9c0.1-0.1,0.1-0.1,0.2-0.2c0.3-0.2,0.7-0.4,1.1-0.4l2.9-0.2L174.2,167.7z
	 M177.8,170.1c0,0-0.1,0-0.1,0c-0.1,0-0.2,0-0.2,0c-0.2,0-0.4,0-0.5-0.2c-0.1-0.2-0.2-0.4-0.1-0.6v-4.2c0-0.4,0-0.8,0-1.1
	c0-0.4-0.1-0.8-0.3-1.1c-0.3-0.8-0.9-1.4-1.6-1.8c-0.8-0.3-1.7-0.5-2.6-0.5c-0.6,0-1.2,0.1-1.8,0.2c-0.5,0.1-1,0.4-1.4,0.7
	c-0.4,0.3-0.8,0.7-1,1.1c-0.3,0.5-0.4,1.1-0.4,1.6h2.6c0-0.5,0.2-0.9,0.6-1.2c0.4-0.3,1-0.4,1.5-0.4c0.6-0.1,1.1,0.1,1.5,0.5
	c0.3,0.4,0.4,0.8,0.4,1.3v0.7l-3.3,0.2c-0.5,0-1,0.1-1.5,0.3c-0.4,0.2-0.9,0.4-1.2,0.7c-0.3,0.3-0.6,0.7-0.8,1.1
	c-0.2,0.4-0.3,0.9-0.3,1.4c0,0.9,0.3,1.8,1,2.5c0.4,0.3,0.8,0.6,1.3,0.8c0.6,0.2,1.2,0.3,1.8,0.3c0.7,0,1.5-0.2,2.1-0.5
	c0.5-0.3,1-0.7,1.3-1.2c0,0.4,0.2,0.8,0.5,1.1c0.4,0.3,0.9,0.5,1.4,0.5c0.3,0,0.5,0,0.8-0.1c0.2-0.1,0.4-0.1,0.6-0.2L177.8,170.1z
	 M162.5,168c-0.1,0.5-0.3,0.9-0.6,1.3c-0.2,0.3-0.5,0.5-0.7,0.6c-0.3,0.2-0.7,0.3-1.1,0.3c-0.3,0-0.6,0-0.9-0.1
	c-0.2-0.1-0.5-0.2-0.7-0.4c-0.4-0.4-0.7-0.9-0.8-1.4c-0.1-0.6-0.2-1.1-0.2-1.7c0-0.4,0-0.8,0.1-1.2c0.1-0.4,0.2-0.8,0.4-1.2
	c0.2-0.3,0.5-0.6,0.8-0.9c0.4-0.2,0.8-0.4,1.3-0.3c0.4,0,0.7,0.1,1.1,0.3c0.3,0.2,0.5,0.4,0.7,0.6c0.3,0.4,0.5,0.8,0.6,1.3
	c0.1,0.5,0.1,1,0.1,1.4C162.7,167.1,162.6,167.6,162.5,168 M163.4,161.6c-0.4-0.3-0.8-0.5-1.2-0.7c-0.5-0.2-1-0.2-1.5-0.2
	c-0.6,0-1.2,0.1-1.8,0.3c-0.4,0.2-0.8,0.4-1.2,0.8v-5.2H155v15.6h2.3l0.2-1.2c0.3,0.5,0.8,0.9,1.4,1.1c0.6,0.2,1.2,0.4,1.8,0.4
	c0.5,0,1-0.1,1.5-0.3c0.4-0.2,0.8-0.4,1.2-0.7c0.7-0.5,1.2-1.3,1.5-2.1c0.3-0.9,0.5-1.9,0.5-2.8
	C165.6,164.8,164.8,162.9,163.4,161.6 M149.5,168.1c-0.1,0.5-0.3,0.9-0.7,1.3c-0.2,0.2-0.5,0.4-0.7,0.5c-0.6,0.3-1.4,0.3-2,0
	c-0.3-0.1-0.5-0.3-0.7-0.5c-0.3-0.4-0.6-0.8-0.6-1.3c-0.2-1-0.2-2.1,0-3.1c0.1-0.5,0.3-0.9,0.6-1.3c0.2-0.2,0.5-0.4,0.7-0.5
	c0.6-0.3,1.4-0.3,2,0c0.3,0.1,0.5,0.3,0.7,0.5c0.3,0.4,0.6,0.8,0.7,1.3C149.7,166.1,149.7,167.1,149.5,168.1 M152.1,164.2
	c-0.2-0.6-0.6-1.2-1-1.8c-0.4-0.5-1-0.9-1.6-1.2c-1.5-0.7-3.2-0.7-4.7,0c-0.6,0.3-1.2,0.7-1.6,1.2c-0.4,0.5-0.8,1.1-1,1.8
	c-0.3,0.8-0.4,1.6-0.4,2.4c0,0.8,0.1,1.6,0.4,2.4c0.2,0.6,0.6,1.2,1,1.8c0.4,0.5,1,0.9,1.6,1.2c1.5,0.7,3.2,0.7,4.7,0
	c0.6-0.3,1.2-0.7,1.6-1.2c0.4-0.5,0.8-1.1,1-1.8c0.3-0.8,0.4-1.6,0.4-2.4C152.4,165.8,152.3,165,152.1,164.2 M140.4,169.9H140
	c-0.5,0-0.8-0.1-0.9-0.3c-0.1-0.2-0.2-0.5-0.2-0.8v-12.3h-2.8v12.8c-0.1,0.9,0.2,1.7,0.8,2.3c0.6,0.5,1.4,0.8,2.2,0.7
	c0.2,0,0.4,0,0.6,0l0.6-0.1L140.4,169.9z M133.2,172.2v-8.4h-6.4v2.3h3.7c0,0.5-0.1,1.1-0.2,1.6c-0.1,0.5-0.4,1-0.8,1.4
	c-0.3,0.3-0.6,0.5-1,0.6c-0.4,0.2-0.9,0.2-1.3,0.2c-0.5,0-0.9-0.1-1.3-0.2c-0.4-0.1-0.8-0.4-1.1-0.7c-0.3-0.3-0.5-0.6-0.6-1
	c-0.2-0.4-0.3-0.8-0.4-1.2c-0.1-0.4-0.1-0.8-0.2-1.2c0-0.4,0-0.8,0-1.1s0-0.7,0-1.1c0-0.4,0.1-0.8,0.2-1.2c0.1-0.4,0.2-0.8,0.4-1.1
	c0.2-0.4,0.4-0.7,0.6-1c0.3-0.3,0.7-0.6,1.2-0.8c0.4-0.2,0.9-0.3,1.4-0.3c0.9-0.1,1.8,0.3,2.5,0.9c0.2,0.2,0.3,0.4,0.4,0.6
	c0.1,0.2,0.2,0.5,0.2,0.8h2.9c0-0.6-0.2-1.2-0.5-1.8c-0.3-0.5-0.6-0.9-1-1.3c-0.6-0.6-1.2-1-2-1.3c-1.6-0.6-3.4-0.6-5,0
	c-0.8,0.3-1.5,0.7-2.1,1.3c-0.4,0.4-0.7,0.8-1,1.3c-0.3,0.5-0.5,0.9-0.6,1.4c-0.1,0.5-0.2,1.1-0.3,1.6c0,0.6-0.1,1.2-0.1,1.8
	c0,0.6,0,1.2,0.1,1.8c0.1,0.6,0.2,1.1,0.3,1.6c0.2,0.5,0.4,1,0.6,1.5c0.3,0.5,0.6,0.9,1,1.3c0.6,0.6,1.3,1.1,2.1,1.3
	c0.8,0.3,1.7,0.4,2.5,0.4c0.5,0,0.9-0.1,1.3-0.2c0.4-0.1,0.8-0.3,1.1-0.5c0.3-0.2,0.6-0.4,0.9-0.6c0.2-0.2,0.4-0.4,0.5-0.7l0.3,1.7
	L133.2,172.2z M111.8,163.6c-0.6,0.5-1.3,0.7-2.1,0.7h-3.2v-5h3.1c0.8-0.1,1.5,0.2,2.1,0.7c0.4,0.5,0.7,1.1,0.7,1.8
	C112.4,162.4,112.2,163.1,111.8,163.6 M114.8,159.7c-0.2-0.6-0.6-1.1-1-1.6c-0.5-0.4-1.1-0.8-1.7-1c-0.8-0.3-1.5-0.4-2.3-0.4h-6
	v15.4h2.7v-5.5h3.2c0.8,0,1.6-0.1,2.3-0.4c0.6-0.2,1.2-0.6,1.7-1c0.4-0.4,0.8-1,1-1.6C115.3,162.5,115.3,161.1,114.8,159.7
	 M95.1,169.3c-0.3,0.4-0.7,0.6-1.2,0.8c-0.5,0.1-0.9,0.2-1.4,0.2c-0.3,0-0.7-0.1-1-0.1c-0.3-0.1-0.6-0.3-0.9-0.5
	c-0.3-0.2-0.5-0.5-0.6-0.8c-0.1-0.3-0.2-0.7-0.2-1c0-0.3,0-0.6,0.1-0.8c0.1-0.2,0.2-0.5,0.4-0.6c0.2-0.2,0.4-0.4,0.6-0.5l0.7-0.4
	L95.1,169.3z M94.1,161.3c-0.1,0.2-0.3,0.4-0.5,0.6c-0.2,0.2-0.4,0.3-0.6,0.5l-0.7,0.4l-0.5-0.5c-0.2-0.2-0.3-0.4-0.5-0.6
	c-0.1-0.2-0.3-0.4-0.3-0.6c-0.1-0.2-0.1-0.5-0.1-0.7c0-0.5,0.2-0.9,0.5-1.2c0.3-0.3,0.8-0.4,1.2-0.4c0.4,0,0.9,0.1,1.2,0.4
	c0.3,0.3,0.5,0.8,0.5,1.2C94.3,160.7,94.2,161,94.1,161.3 M101.1,172.3l-2.8-3.1c0.3-0.5,0.6-1.1,0.7-1.6c0.1-0.6,0.2-1.2,0.2-1.8
	h1.8v-2.1h-4v0.9c0,0.3,0,0.7,0,1s-0.1,0.7-0.1,1c0,0.3-0.1,0.6-0.3,0.9l-2.7-2.9c0.4-0.2,0.8-0.5,1.2-0.8c0.3-0.3,0.7-0.6,0.9-0.9
	c0.3-0.3,0.5-0.7,0.6-1.1c0.1-0.4,0.2-0.9,0.2-1.4c0-0.6-0.1-1.1-0.3-1.6c-0.2-0.5-0.5-0.9-0.9-1.2c-0.4-0.3-0.9-0.6-1.4-0.7
	c-0.5-0.2-1.1-0.3-1.6-0.2c-0.6,0-1.1,0.1-1.6,0.3c-1.6,0.5-2.6,2-2.6,3.6c0,0.3,0,0.7,0.1,1c0.1,0.3,0.2,0.6,0.3,0.8
	c0.1,0.3,0.3,0.5,0.5,0.8c0.2,0.3,0.4,0.5,0.7,0.8c-0.8,0.5-1.5,1.1-2,1.8c-0.5,0.7-0.8,1.6-0.7,2.4c0,0.7,0.1,1.4,0.4,2
	c0.3,0.6,0.6,1.1,1.1,1.5c0.5,0.4,1,0.7,1.6,0.9c0.6,0.2,1.3,0.3,2,0.3c0.8,0,1.6-0.1,2.3-0.4c0.8-0.3,1.5-0.7,2.1-1.2l1.1,1.2
	L101.1,172.3z M84.8,165.9c-0.2-0.5-0.5-0.9-0.9-1.3c-0.4-0.4-0.8-0.7-1.3-0.9c-0.5-0.2-1.1-0.4-1.6-0.5c-0.5-0.1-1.1-0.1-1.7-0.2
	s-1.2-0.1-1.7-0.2c-0.4,0-0.8-0.2-1.1-0.5c-0.3-0.3-0.5-0.7-0.4-1.2c0-0.3,0-0.5,0.1-0.7c0.1-0.2,0.2-0.4,0.4-0.6
	c0.3-0.3,0.7-0.6,1.2-0.7c0.4-0.1,0.9-0.2,1.3-0.2c0.4,0,0.9,0.1,1.3,0.2c0.4,0.1,0.8,0.3,1.1,0.6c0.2,0.2,0.3,0.5,0.5,0.7
	c0.1,0.3,0.2,0.5,0.2,0.8h2.9c0-0.6-0.2-1.2-0.4-1.8c-0.3-0.6-0.6-1.1-1.1-1.5c-0.5-0.5-1.2-0.9-1.9-1.1c-0.8-0.3-1.6-0.4-2.4-0.4
	c-0.9,0-1.8,0.2-2.6,0.5c-0.7,0.2-1.4,0.6-1.9,1.2c-0.4,0.4-0.7,0.9-1,1.4c-0.2,0.5-0.4,1.1-0.4,1.7c0,0.6,0.1,1.2,0.3,1.7
	c0.2,0.5,0.5,0.9,0.8,1.3c0.4,0.4,0.8,0.6,1.2,0.9c0.5,0.2,1,0.4,1.5,0.4c0.6,0.1,1.1,0.2,1.7,0.2c0.6,0,1.1,0.1,1.7,0.2
	c0.5,0.1,0.9,0.3,1.3,0.6c0.4,0.3,0.6,0.8,0.5,1.3c0,0.3,0,0.6-0.2,0.9c-0.1,0.2-0.3,0.4-0.4,0.6c-0.3,0.3-0.7,0.5-1.2,0.6
	c-0.5,0.1-1,0.2-1.5,0.2c-0.5,0-0.9-0.1-1.4-0.2c-0.5-0.1-0.9-0.3-1.2-0.7c-0.2-0.2-0.4-0.5-0.6-0.8c-0.1-0.3-0.2-0.7-0.2-1h-2.8
	c0,0.7,0.2,1.4,0.5,2c0.3,0.6,0.7,1.1,1.2,1.5c0.6,0.6,1.4,1,2.2,1.2c0.8,0.2,1.6,0.4,2.4,0.4c0.9,0,1.8-0.1,2.7-0.4
	c0.8-0.2,1.6-0.7,2.2-1.3c0.9-0.8,1.3-2,1.3-3.2C85.2,167,85.1,166.4,84.8,165.9"/>
<path d="M283,160.9h-2.8l-2.8,8.1l-2.9-8.1h-3l4.4,11.3l-0.6,1.6c-0.1,0.3-0.3,0.5-0.6,0.7c-0.2,0.1-0.5,0.2-0.7,0.2h-0.4h-0.3
	l-0.3-0.1l-0.4-0.1v2.3l0.9,0.2c0.4,0.1,0.8,0.1,1.2,0.1c0.4,0,0.9-0.1,1.3-0.2c0.4-0.1,0.7-0.4,1-0.6c0.3-0.3,0.5-0.6,0.7-0.9
	c0.2-0.3,0.4-0.7,0.5-1.1L283,160.9z M270.3,172.2v-7.5c0-0.6-0.1-1.1-0.3-1.6c-0.2-0.5-0.4-0.9-0.8-1.3c-0.3-0.4-0.7-0.6-1.2-0.8
	c-0.5-0.2-1.1-0.3-1.6-0.3c-0.7,0-1.3,0.1-1.9,0.4c-0.6,0.3-1.1,0.7-1.4,1.3l-0.2-1.4h-2.3v11.3h2.7v-4.6c0-0.5,0-1,0-1.6
	c0-0.5,0.1-1,0.3-1.5c0.2-0.4,0.4-0.7,0.8-1c0.3-0.3,0.8-0.4,1.2-0.4c0.6-0.1,1.1,0.1,1.5,0.6c0.3,0.5,0.4,1,0.4,1.6v6.9
	L270.3,172.2z M254.7,167.7c0,0.7-0.3,1.4-0.8,1.9c-0.6,0.5-1.3,0.7-2.1,0.7c-0.4,0-0.8-0.1-1.1-0.4c-0.3-0.2-0.5-0.6-0.5-1
	c0-0.4,0.2-0.8,0.5-1.1c0.3-0.2,0.7-0.4,1.1-0.4l2.9-0.2V167.7z M258.3,170c0,0-0.1,0-0.1,0H258c-0.2,0-0.4,0-0.5-0.2
	c-0.1-0.2-0.2-0.4-0.1-0.6v-4.2c0-0.4,0-0.8,0-1.1c0-0.4-0.1-0.8-0.3-1.1c-0.3-0.8-0.9-1.4-1.6-1.8c-0.8-0.4-1.7-0.5-2.6-0.5
	c-0.6,0-1.2,0.1-1.8,0.2c-0.5,0.1-1,0.3-1.5,0.7c-0.4,0.3-0.8,0.7-1,1.1c-0.3,0.5-0.4,1.1-0.4,1.6h2.6c0-0.5,0.2-0.9,0.6-1.2
	c0.4-0.3,1-0.4,1.5-0.4c0.6-0.1,1.1,0.1,1.5,0.5c0.3,0.4,0.4,0.8,0.4,1.3v0.7l-3.3,0.2c-0.5,0-1,0.1-1.5,0.3
	c-0.4,0.2-0.9,0.4-1.2,0.7c-0.3,0.3-0.6,0.7-0.8,1.1c-0.2,0.5-0.3,0.9-0.3,1.4c0,0.5,0.1,0.9,0.3,1.3c0.2,0.4,0.4,0.8,0.8,1.1
	c0.4,0.3,0.8,0.6,1.3,0.8c0.6,0.2,1.2,0.3,1.8,0.3c0.7,0,1.5-0.2,2.1-0.5c0.5-0.3,1-0.7,1.3-1.2c0,0.4,0.2,0.8,0.6,1.1
	c0.4,0.3,0.9,0.5,1.4,0.5c0.2,0,0.5,0,0.7-0.1c0.2-0.1,0.4-0.1,0.6-0.2L258.3,170z M242.9,168c-0.1,0.5-0.3,0.9-0.6,1.3
	c-0.2,0.3-0.5,0.5-0.8,0.6c-0.3,0.2-0.7,0.3-1.1,0.3c-0.5,0-0.9-0.1-1.3-0.3c-0.3-0.2-0.6-0.5-0.8-0.9c-0.2-0.4-0.3-0.8-0.4-1.2
	c-0.1-0.4-0.1-0.8-0.1-1.2c0-0.4,0-0.8,0.1-1.3c0.1-0.4,0.2-0.8,0.4-1.2c0.2-0.4,0.5-0.7,0.8-0.9c0.4-0.2,0.8-0.4,1.3-0.3
	c0.4,0,0.7,0.1,1.1,0.3c0.3,0.2,0.5,0.4,0.8,0.6c0.3,0.4,0.5,0.8,0.6,1.3c0.1,0.5,0.1,1,0.1,1.5C243.1,167.1,243,167.6,242.9,168
	 M245.3,163.7c-0.3-0.8-0.8-1.5-1.5-2.1c-0.4-0.3-0.8-0.5-1.2-0.7c-0.5-0.2-1-0.3-1.5-0.3c-0.6,0-1.2,0.1-1.8,0.4
	c-0.6,0.2-1,0.6-1.4,1.1l-0.2-1.2h-2.4v15.6h2.7v-5.1c0.3,0.4,0.7,0.6,1.2,0.8c0.6,0.2,1.2,0.3,1.8,0.3c0.5,0,1.1-0.1,1.6-0.2
	c0.4-0.1,0.8-0.4,1.2-0.7c0.7-0.6,1.2-1.3,1.5-2.1c0.4-0.9,0.5-1.9,0.5-2.9C245.8,165.6,245.7,164.6,245.3,163.7 M232.3,172.2v-7.6
	c0-1-0.3-2-0.9-2.9c-0.7-0.8-1.7-1.2-2.8-1.1c-0.7,0-1.4,0.2-2,0.5c-0.6,0.3-1.1,0.8-1.4,1.4c-0.3-0.6-0.7-1-1.2-1.4
	c-0.6-0.3-1.3-0.5-2-0.5c-0.7,0-1.3,0.2-1.9,0.5c-0.5,0.3-1,0.8-1.3,1.3l-0.2-1.5h-2.3v11.3h2.7V166c0-0.4,0-0.7,0.1-1.1
	c0.1-0.4,0.2-0.7,0.4-1c0.2-0.3,0.4-0.5,0.7-0.7c0.3-0.2,0.6-0.3,1-0.3c0.5-0.1,1.1,0.2,1.4,0.6c0.3,0.5,0.4,1.1,0.4,1.6v7h2.7V166
	c0-0.4,0-0.7,0.1-1.1c0.1-0.4,0.2-0.7,0.4-1c0.2-0.3,0.4-0.5,0.7-0.7c0.3-0.2,0.6-0.3,1-0.3c0.5-0.1,1.1,0.2,1.4,0.6
	c0.3,0.5,0.4,1.1,0.4,1.6v7L232.3,172.2z M210.9,168.1c-0.1,0.5-0.3,0.9-0.6,1.3c-0.2,0.2-0.4,0.4-0.7,0.5c-0.3,0.1-0.7,0.2-1,0.2
	c-0.3,0-0.7-0.1-1-0.2c-0.3-0.1-0.5-0.3-0.7-0.5c-0.3-0.4-0.6-0.8-0.6-1.3c-0.2-1-0.2-2.1,0-3.1c0.1-0.5,0.3-0.9,0.6-1.3
	c0.2-0.2,0.5-0.4,0.7-0.5c0.3-0.1,0.7-0.2,1-0.2c0.3,0,0.7,0.1,1,0.2c0.3,0.1,0.5,0.3,0.7,0.5c0.3,0.4,0.6,0.8,0.6,1.3
	C211.1,166,211.1,167.1,210.9,168.1 M213.4,164.2c-0.2-0.6-0.6-1.2-1-1.8c-0.4-0.5-1-0.9-1.6-1.2c-1.5-0.7-3.2-0.7-4.7,0
	c-0.6,0.3-1.2,0.7-1.6,1.2c-0.4,0.5-0.8,1.1-1,1.8c-0.5,1.6-0.5,3.2,0,4.8c0.2,0.6,0.6,1.2,1,1.8c1.6,1.7,4.1,2.2,6.3,1.2
	c0.6-0.3,1.2-0.7,1.6-1.2c0.4-0.5,0.8-1.1,1-1.8C213.9,167.4,213.9,165.7,213.4,164.2 M198.6,167.3c-0.1,0.6-0.3,1.2-0.7,1.7
	c-0.3,0.3-0.6,0.6-1,0.7c-0.4,0.2-0.9,0.3-1.3,0.3c-0.4,0-0.9-0.1-1.3-0.3c-0.4-0.2-0.8-0.4-1.1-0.8c-0.3-0.3-0.5-0.6-0.6-0.9
	c-0.1-0.4-0.3-0.7-0.3-1.1c-0.1-0.4-0.1-0.8-0.1-1.2c0-0.4,0-0.8,0-1.1s0-0.7,0-1.1c0-0.4,0-0.8,0.1-1.2c0.1-0.4,0.2-0.8,0.3-1.1
	c0.1-0.4,0.3-0.7,0.6-1c0.3-0.3,0.7-0.6,1.1-0.8c0.4-0.2,0.8-0.3,1.3-0.3c0.5,0,0.9,0.1,1.3,0.2c0.4,0.1,0.7,0.4,1,0.7
	c0.2,0.2,0.3,0.5,0.5,0.8c0.1,0.3,0.2,0.6,0.2,0.9h2.9c-0.1-0.6-0.2-1.2-0.5-1.8c-0.2-0.6-0.6-1.1-1-1.6c-0.6-0.6-1.2-1-2-1.3
	c-1.5-0.6-3.2-0.6-4.7,0c-1.3,0.5-2.3,1.4-3,2.6c-0.3,0.5-0.4,1-0.6,1.5c-0.1,0.5-0.2,1.1-0.3,1.6c0,0.6-0.1,1.2-0.1,1.8
	c0,0.6,0,1.2,0.1,1.8c0,0.6,0.1,1.1,0.3,1.6c0.1,0.5,0.3,1,0.6,1.5c0.7,1.2,1.7,2.1,3,2.6c0.8,0.3,1.5,0.4,2.4,0.4
	c0.8,0,1.6-0.2,2.4-0.5c0.8-0.3,1.4-0.8,2-1.4c0.4-0.5,0.8-1,1-1.6c0.2-0.6,0.4-1.2,0.5-1.8L198.6,167.3z M66.2,172.2v-7.5
	c0-0.5-0.1-1.1-0.3-1.6c-0.2-0.5-0.4-0.9-0.7-1.3c-0.3-0.4-0.7-0.6-1.2-0.8c-0.5-0.2-1.1-0.3-1.6-0.3c-0.6,0-1.3,0.1-1.9,0.4
	c-0.6,0.3-1.1,0.7-1.4,1.3l-0.2-1.5h-2.3v11.3h2.7v-4.6c0-0.5,0-1,0-1.6c0-0.5,0.1-1,0.3-1.5c0.2-0.4,0.4-0.7,0.8-1
	c0.3-0.3,0.8-0.4,1.2-0.4c0.6-0.1,1.1,0.1,1.5,0.6c0.3,0.5,0.4,1,0.4,1.6v6.9L66.2,172.2z M50.1,166.7h-4.4l2.2-6.5L50.1,166.7z
	 M54.9,172.2l-5.4-15.4h-3l-5.4,15.4h2.8l1-2.9H51l1,2.9H54.9z"/>
<rect x="41.1" y="142.3" width="241.9" height="5.4"/>
<path class="st0" d="M283,119.3v-9.5h-25.6V64.2h-10v55.1H283z M233.5,64.2h-10.2v55.1h10.2V64.2z M211.1,96.6
	c-0.8-1.8-1.9-3.4-3.3-4.8c-1.4-1.3-3-2.4-4.8-3.2c-1.9-0.8-3.8-1.4-5.9-1.7c-1.8-0.2-3.8-0.5-6-0.7s-4.2-0.4-5.9-0.7
	c-1.5-0.2-2.9-0.8-4.1-1.8c-1.1-1.1-1.7-2.6-1.6-4.2c0-0.9,0.1-1.8,0.5-2.6c0.4-0.7,0.8-1.4,1.4-2c1.1-1.2,2.6-2,4.2-2.4
	c1.6-0.4,3.2-0.6,4.8-0.6c1.6,0,3.2,0.3,4.7,0.8c1.4,0.4,2.7,1.2,3.7,2.2c0.7,0.7,1.3,1.6,1.7,2.5c0.4,0.9,0.7,1.9,0.7,2.9h10.3
	c0-2.2-0.6-4.5-1.6-6.4c-1-2-2.4-3.8-4-5.3c-2-1.8-4.3-3.2-6.9-4c-5.8-1.9-12-1.8-17.7,0.2c-2.6,0.9-5,2.4-7,4.3
	c-1.4,1.4-2.6,3.1-3.5,4.9c-0.9,1.9-1.3,3.9-1.3,6c0,2.1,0.4,4.2,1.1,6.1c0.7,1.7,1.7,3.3,3,4.6c1.3,1.3,2.8,2.3,4.4,3.1
	c1.7,0.8,3.5,1.3,5.4,1.6c2,0.3,4,0.6,6.1,0.7c2.1,0.1,4.1,0.4,6.1,0.8c1.7,0.3,3.2,1,4.6,2c1.4,1.1,2.1,2.8,2,4.6
	c0.1,1.1-0.2,2.2-0.6,3.2c-0.4,0.8-1,1.5-1.6,2.1c-1.1,1.1-2.6,1.9-4.1,2.3c-3.4,0.9-7,0.9-10.4,0.1c-1.6-0.4-3.1-1.2-4.3-2.4
	c-0.9-0.9-1.6-1.9-2.1-3c-0.6-1.2-0.8-2.5-0.8-3.8H168c0,2.5,0.5,5,1.6,7.3c1,2.1,2.4,4,4.1,5.6c2.2,2,4.9,3.5,7.8,4.4
	c2.8,0.8,5.8,1.3,8.8,1.3c3.3,0,6.5-0.4,9.7-1.4c2.9-0.8,5.6-2.4,7.7-4.6c3.1-3,4.7-7.2,4.6-11.5C212.3,100.8,211.9,98.6,211.1,96.6
	 M157.7,64.2h-10.2v55.1h10.2L157.7,64.2z M124.1,87.3c-1.9,1.5-4.2,2.3-6.6,2.1h-13.4V72.9h13.2c1.3,0,2.6,0.2,3.8,0.7
	c2.1,0.8,3.8,2.4,4.7,4.5c0.4,1,0.6,2.1,0.6,3.2C126.6,83.5,125.7,85.7,124.1,87.3 M136.5,119.3l-10.1-22.5c3-1.1,5.6-3.1,7.3-5.8
	c1.9-2.9,2.8-6.2,2.8-9.7c0-2.2-0.4-4.4-1.1-6.4c-0.8-2-2-3.9-3.5-5.4c-1.7-1.7-3.8-3-6-3.8c-2.7-1-5.6-1.5-8.5-1.4H94.1v55.1h10.1
	V98.4h12.2l9.2,20.8L136.5,119.3z M73.3,101.7c-0.2,2.2-1.1,4.3-2.5,6.1c-0.9,1.2-2.1,2.1-3.5,2.6c-1.5,0.6-3.1,0.9-4.8,0.9
	c-1.6,0-3.2-0.3-4.6-0.9c-1.5-0.6-2.8-1.5-3.8-2.7c-0.9-1-1.7-2.1-2.2-3.4c-0.5-1.3-0.9-2.7-1.1-4.1c-0.2-1.4-0.4-2.9-0.4-4.3
	c0-1.5-0.1-2.8-0.1-4s0-2.6,0.1-4c0.1-1.4,0.2-2.9,0.4-4.3c0.2-1.4,0.6-2.8,1.1-4.1c0.5-1.3,1.2-2.4,2.2-3.4
	c1.1-1.2,2.4-2.1,3.8-2.7c1.5-0.7,3.1-1,4.7-1c1.6,0,3.2,0.3,4.8,0.9c1.4,0.5,2.6,1.4,3.5,2.6c0.7,0.8,1.2,1.7,1.7,2.7
	c0.4,1,0.7,2.1,0.8,3.2h10.2c-0.3-2.2-0.8-4.3-1.6-6.4c-0.8-2.1-2.1-4-3.7-5.6c-2-2.1-4.5-3.7-7.2-4.8c-5.5-2.1-11.5-2.1-17-0.1
	c-2.7,1-5.2,2.6-7.2,4.7c-1.4,1.4-2.6,3-3.6,4.8c-0.9,1.7-1.6,3.4-2.1,5.3c-0.5,1.9-0.8,3.9-0.9,5.9c-0.2,2.1-0.2,4.2-0.2,6.4
	s0.1,4.4,0.2,6.5c0.1,2,0.5,3.9,0.9,5.9c0.5,1.8,1.1,3.6,2.1,5.3c1,1.7,2.2,3.3,3.6,4.7c2,2.1,4.5,3.7,7.2,4.7
	c2.7,1,5.6,1.5,8.5,1.5c2.9,0,5.8-0.6,8.6-1.7c2.7-1.1,5.2-2.8,7.2-4.9c1.6-1.6,2.8-3.5,3.7-5.6c0.8-2.1,1.3-4.2,1.6-6.4H73.3z"/>
</svg>
